<svg xmlns="http://www.w3.org/2000/svg" version="1.1" xmlns:xlink="http://www.w3.org/1999/xlink" xmlns:svgjs="http://svgjs.com/svgjs" width="65.000000pt" height="80.000000pt"><svg version="1.0" xmlns="http://www.w3.org/2000/svg" width="65.000000pt" height="80.000000pt" viewBox="0 0 65.000000 80.000000" preserveAspectRatio="xMidYMid meet">

<g transform="translate(0.000000,80.000000) scale(0.100000,-0.100000)" fill="#ff3434" stroke="none">
<path d="M84 766 c-9 -38 -1 -61 24 -64 27 -4 31 -42 5 -42 -19 0 -17 7 -70
-300 -17 -102 -31 -256 -25 -287 3 -16 15 -26 41 -33 53 -15 310 -32 431 -28
l105 3 7 260 c3 143 8 276 11 296 5 32 3 38 -19 48 -29 13 -23 31 10 31 19 0
25 7 28 30 5 36 2 40 -30 40 -13 0 -66 13 -116 29 -78 25 -112 30 -243 35
l-153 6 -6 -24z m419 -43 c102 -32 144 -60 75 -49 -18 3 -96 11 -173 17 -317
26 -290 21 -293 51 l-3 27 143 -6 c126 -5 156 -9 251 -40z m-140 -48 c92 -8
172 -15 178 -15 5 0 9 -7 9 -16 0 -9 12 -28 26 -41 21 -19 25 -29 19 -51 -4
-15 -10 -137 -14 -272 l-6 -245 -200 2 c-227 2 -321 9 -328 26 -10 30 19 299
49 437 8 41 17 87 18 103 2 15 4 32 5 37 0 6 8 10 16 10 8 0 15 8 15 18 0 24
7 31 28 26 9 -2 93 -10 185 -19z"></path>
<path d="M289 586 c-94 -25 -132 -74 -151 -194 -24 -154 11 -239 112 -274 109
-38 233 -1 259 77 18 52 29 179 21 232 -12 71 -51 130 -103 154 -48 21 -74 23
-138 5z m148 -37 c13 -7 25 -19 28 -26 2 -7 -8 -4 -24 8 -18 13 -51 23 -92 27
-50 5 -58 7 -34 12 37 7 93 -2 122 -21z m-19 -30 c55 -27 73 -66 74 -158 1
-114 -51 -198 -129 -207 -55 -6 -142 32 -166 73 -47 81 -20 250 47 293 42 27
117 26 174 -1z m91 -79 c0 -10 -3 -8 -9 5 -12 27 -12 43 0 25 5 -8 9 -22 9
-30z m8 -62 c-3 -8 -6 -5 -6 6 -1 11 2 17 5 13 3 -3 4 -12 1 -19z m-331 -167
c18 -30 99 -71 142 -71 9 0 24 -5 32 -10 25 -16 -45 -12 -101 6 -59 20 -98 64
-104 121 -4 32 -4 34 4 11 5 -14 17 -40 27 -57z m314 20 c0 -6 -11 -23 -25
-38 l-26 -28 23 37 c25 40 28 43 28 29z m-70 -91 c-8 -5 -24 -9 -35 -9 -16 1
-16 2 5 9 35 11 48 11 30 0z"></path>
<path d="M298 425 c-12 -18 -20 -83 -13 -104 8 -27 29 -28 22 -1 -4 17 -2 18
16 9 12 -7 30 -18 40 -27 9 -8 20 -12 25 -8 4 5 -8 20 -26 35 l-32 28 25 13
c14 7 25 17 25 22 0 15 -37 8 -51 -9 -13 -15 -15 -13 -19 18 -3 19 -8 29 -12
24z"></path>
</g>
</svg><style>@media (prefers-color-scheme: light) { :root { filter: none; } }
</style></svg>